<mxfile host="app.diagrams.net" modified="2023-11-09T05:44:49.519Z" agent="Mozilla/5.0 (Windows NT 10.0; Win64; x64) AppleWebKit/537.36 (KHTML, like Gecko) Chrome/119.0.0.0 Safari/537.36" etag="v6UWxAuW1t4PtarO5-bF" version="22.1.0" type="device" pages="4">
  <diagram name="bài1" id="Bjq1_eTOAwX_ZqYghlQb">
    <mxGraphModel dx="880" dy="478" grid="1" gridSize="10" guides="1" tooltips="1" connect="1" arrows="1" fold="1" page="1" pageScale="1" pageWidth="827" pageHeight="1169" math="0" shadow="0">
      <root>
        <mxCell id="0" />
        <mxCell id="1" parent="0" />
        <mxCell id="hCaoaT5BdJqLVPMWCviB-4" value="" style="edgeStyle=orthogonalEdgeStyle;rounded=0;orthogonalLoop=1;jettySize=auto;html=1;" parent="1" source="hCaoaT5BdJqLVPMWCviB-1" target="hCaoaT5BdJqLVPMWCviB-3" edge="1">
          <mxGeometry relative="1" as="geometry" />
        </mxCell>
        <mxCell id="hCaoaT5BdJqLVPMWCviB-1" value="Start" style="ellipse;whiteSpace=wrap;html=1;" parent="1" vertex="1">
          <mxGeometry x="40" y="40" width="120" height="80" as="geometry" />
        </mxCell>
        <mxCell id="hCaoaT5BdJqLVPMWCviB-7" value="" style="edgeStyle=orthogonalEdgeStyle;rounded=0;orthogonalLoop=1;jettySize=auto;html=1;" parent="1" source="hCaoaT5BdJqLVPMWCviB-2" target="hCaoaT5BdJqLVPMWCviB-6" edge="1">
          <mxGeometry relative="1" as="geometry" />
        </mxCell>
        <mxCell id="hCaoaT5BdJqLVPMWCviB-2" value="r" style="shape=parallelogram;perimeter=parallelogramPerimeter;whiteSpace=wrap;html=1;fixedSize=1;" parent="1" vertex="1">
          <mxGeometry x="40" y="270" width="120" height="60" as="geometry" />
        </mxCell>
        <mxCell id="hCaoaT5BdJqLVPMWCviB-5" value="" style="edgeStyle=orthogonalEdgeStyle;rounded=0;orthogonalLoop=1;jettySize=auto;html=1;" parent="1" source="hCaoaT5BdJqLVPMWCviB-3" target="hCaoaT5BdJqLVPMWCviB-2" edge="1">
          <mxGeometry relative="1" as="geometry" />
        </mxCell>
        <mxCell id="hCaoaT5BdJqLVPMWCviB-3" value="r, S_htron, CV_htron&lt;br&gt;PI = 3.14" style="rounded=0;whiteSpace=wrap;html=1;" parent="1" vertex="1">
          <mxGeometry x="40" y="160" width="120" height="60" as="geometry" />
        </mxCell>
        <mxCell id="hCaoaT5BdJqLVPMWCviB-9" value="" style="edgeStyle=orthogonalEdgeStyle;rounded=0;orthogonalLoop=1;jettySize=auto;html=1;" parent="1" source="hCaoaT5BdJqLVPMWCviB-6" target="hCaoaT5BdJqLVPMWCviB-8" edge="1">
          <mxGeometry relative="1" as="geometry" />
        </mxCell>
        <mxCell id="hCaoaT5BdJqLVPMWCviB-6" value="S_htron = r*r*PI&lt;br&gt;CV_htron = (r*2)*PI" style="rounded=0;whiteSpace=wrap;html=1;" parent="1" vertex="1">
          <mxGeometry x="40" y="370" width="120" height="60" as="geometry" />
        </mxCell>
        <mxCell id="hCaoaT5BdJqLVPMWCviB-11" value="" style="edgeStyle=orthogonalEdgeStyle;rounded=0;orthogonalLoop=1;jettySize=auto;html=1;" parent="1" source="hCaoaT5BdJqLVPMWCviB-8" target="hCaoaT5BdJqLVPMWCviB-10" edge="1">
          <mxGeometry relative="1" as="geometry" />
        </mxCell>
        <mxCell id="hCaoaT5BdJqLVPMWCviB-8" value="S_htron&lt;br&gt;CV_htron" style="shape=parallelogram;perimeter=parallelogramPerimeter;whiteSpace=wrap;html=1;fixedSize=1;" parent="1" vertex="1">
          <mxGeometry x="40" y="480" width="120" height="60" as="geometry" />
        </mxCell>
        <mxCell id="hCaoaT5BdJqLVPMWCviB-10" value="End" style="ellipse;whiteSpace=wrap;html=1;" parent="1" vertex="1">
          <mxGeometry x="40" y="580" width="120" height="80" as="geometry" />
        </mxCell>
        <mxCell id="r1pokFaYfe4XM7Uuyzfw-1" value="bài 1" style="text;html=1;align=center;verticalAlign=middle;resizable=0;points=[];autosize=1;strokeColor=none;fillColor=none;" parent="1" vertex="1">
          <mxGeometry x="255" y="148" width="50" height="30" as="geometry" />
        </mxCell>
      </root>
    </mxGraphModel>
  </diagram>
  <diagram id="ZN8IzhGsqNOXftJiYk1A" name="bài3">
    <mxGraphModel dx="880" dy="478" grid="1" gridSize="10" guides="1" tooltips="1" connect="1" arrows="1" fold="1" page="1" pageScale="1" pageWidth="827" pageHeight="1169" math="0" shadow="0">
      <root>
        <mxCell id="0" />
        <mxCell id="1" parent="0" />
        <mxCell id="Q1Yh-PMRaMi0htJ2yG4x-3" value="" style="edgeStyle=orthogonalEdgeStyle;rounded=0;orthogonalLoop=1;jettySize=auto;html=1;" parent="1" source="Q1Yh-PMRaMi0htJ2yG4x-1" target="Q1Yh-PMRaMi0htJ2yG4x-2" edge="1">
          <mxGeometry relative="1" as="geometry" />
        </mxCell>
        <mxCell id="Q1Yh-PMRaMi0htJ2yG4x-1" value="Start" style="ellipse;whiteSpace=wrap;html=1;" parent="1" vertex="1">
          <mxGeometry x="40" y="80" width="120" height="80" as="geometry" />
        </mxCell>
        <mxCell id="Q1Yh-PMRaMi0htJ2yG4x-6" value="" style="edgeStyle=orthogonalEdgeStyle;rounded=0;orthogonalLoop=1;jettySize=auto;html=1;" parent="1" source="Q1Yh-PMRaMi0htJ2yG4x-2" target="Q1Yh-PMRaMi0htJ2yG4x-5" edge="1">
          <mxGeometry relative="1" as="geometry" />
        </mxCell>
        <mxCell id="Q1Yh-PMRaMi0htJ2yG4x-2" value="a,b,c,tong_diem,diem_TB" style="rounded=0;whiteSpace=wrap;html=1;" parent="1" vertex="1">
          <mxGeometry x="25" y="200" width="150" height="60" as="geometry" />
        </mxCell>
        <mxCell id="Q1Yh-PMRaMi0htJ2yG4x-7" value="" style="edgeStyle=orthogonalEdgeStyle;rounded=0;orthogonalLoop=1;jettySize=auto;html=1;" parent="1" source="Q1Yh-PMRaMi0htJ2yG4x-5" edge="1">
          <mxGeometry relative="1" as="geometry">
            <mxPoint x="100" y="420" as="targetPoint" />
          </mxGeometry>
        </mxCell>
        <mxCell id="Q1Yh-PMRaMi0htJ2yG4x-5" value="a,b,c" style="shape=parallelogram;perimeter=parallelogramPerimeter;whiteSpace=wrap;html=1;fixedSize=1;" parent="1" vertex="1">
          <mxGeometry x="40" y="310" width="120" height="60" as="geometry" />
        </mxCell>
        <mxCell id="Q1Yh-PMRaMi0htJ2yG4x-10" value="" style="edgeStyle=orthogonalEdgeStyle;rounded=0;orthogonalLoop=1;jettySize=auto;html=1;" parent="1" source="Q1Yh-PMRaMi0htJ2yG4x-8" target="Q1Yh-PMRaMi0htJ2yG4x-9" edge="1">
          <mxGeometry relative="1" as="geometry" />
        </mxCell>
        <mxCell id="Q1Yh-PMRaMi0htJ2yG4x-8" value="tong_diem = a+b+c&lt;br&gt;diem_TB = (a+b+c)/3" style="rounded=0;whiteSpace=wrap;html=1;" parent="1" vertex="1">
          <mxGeometry x="40" y="420" width="120" height="60" as="geometry" />
        </mxCell>
        <mxCell id="Q1Yh-PMRaMi0htJ2yG4x-12" value="" style="edgeStyle=orthogonalEdgeStyle;rounded=0;orthogonalLoop=1;jettySize=auto;html=1;" parent="1" source="Q1Yh-PMRaMi0htJ2yG4x-9" target="Q1Yh-PMRaMi0htJ2yG4x-11" edge="1">
          <mxGeometry relative="1" as="geometry" />
        </mxCell>
        <mxCell id="Q1Yh-PMRaMi0htJ2yG4x-9" value="tong_diem&lt;br&gt;diem_TB" style="shape=parallelogram;perimeter=parallelogramPerimeter;whiteSpace=wrap;html=1;fixedSize=1;" parent="1" vertex="1">
          <mxGeometry x="40" y="525" width="120" height="60" as="geometry" />
        </mxCell>
        <mxCell id="Q1Yh-PMRaMi0htJ2yG4x-11" value="End" style="ellipse;whiteSpace=wrap;html=1;" parent="1" vertex="1">
          <mxGeometry x="40" y="620" width="120" height="80" as="geometry" />
        </mxCell>
        <mxCell id="Q1Yh-PMRaMi0htJ2yG4x-13" value="bài 3" style="text;html=1;align=center;verticalAlign=middle;resizable=0;points=[];autosize=1;strokeColor=none;fillColor=none;" parent="1" vertex="1">
          <mxGeometry x="215" y="208" width="50" height="30" as="geometry" />
        </mxCell>
      </root>
    </mxGraphModel>
  </diagram>
  <diagram id="9VqsxvnuPx0Y0nmrsktn" name="bài4">
    <mxGraphModel dx="1707" dy="478" grid="1" gridSize="10" guides="1" tooltips="1" connect="1" arrows="1" fold="1" page="1" pageScale="1" pageWidth="827" pageHeight="1169" math="0" shadow="0">
      <root>
        <mxCell id="0" />
        <mxCell id="1" parent="0" />
        <mxCell id="YscCx746VWTbniBhREQ4-3" value="" style="edgeStyle=orthogonalEdgeStyle;rounded=0;orthogonalLoop=1;jettySize=auto;html=1;" parent="1" source="YscCx746VWTbniBhREQ4-1" target="YscCx746VWTbniBhREQ4-2" edge="1">
          <mxGeometry relative="1" as="geometry" />
        </mxCell>
        <mxCell id="YscCx746VWTbniBhREQ4-1" value="Start" style="ellipse;whiteSpace=wrap;html=1;" parent="1" vertex="1">
          <mxGeometry x="40" y="40" width="120" height="80" as="geometry" />
        </mxCell>
        <mxCell id="YscCx746VWTbniBhREQ4-5" value="" style="edgeStyle=orthogonalEdgeStyle;rounded=0;orthogonalLoop=1;jettySize=auto;html=1;" parent="1" source="YscCx746VWTbniBhREQ4-2" target="YscCx746VWTbniBhREQ4-4" edge="1">
          <mxGeometry relative="1" as="geometry" />
        </mxCell>
        <mxCell id="YscCx746VWTbniBhREQ4-2" value="number1,number2,number3&lt;br&gt;max, min" style="rounded=0;whiteSpace=wrap;html=1;" parent="1" vertex="1">
          <mxGeometry x="17.5" y="160" width="165" height="60" as="geometry" />
        </mxCell>
        <mxCell id="YscCx746VWTbniBhREQ4-7" value="" style="edgeStyle=orthogonalEdgeStyle;rounded=0;orthogonalLoop=1;jettySize=auto;html=1;entryX=0.5;entryY=0;entryDx=0;entryDy=0;" parent="1" source="YscCx746VWTbniBhREQ4-4" target="YscCx746VWTbniBhREQ4-8" edge="1">
          <mxGeometry relative="1" as="geometry">
            <mxPoint x="100" y="360" as="targetPoint" />
          </mxGeometry>
        </mxCell>
        <mxCell id="YscCx746VWTbniBhREQ4-4" value="number1, number2, number3" style="shape=parallelogram;perimeter=parallelogramPerimeter;whiteSpace=wrap;html=1;fixedSize=1;" parent="1" vertex="1">
          <mxGeometry x="30" y="260" width="140" height="60" as="geometry" />
        </mxCell>
        <mxCell id="YscCx746VWTbniBhREQ4-12" value="" style="edgeStyle=orthogonalEdgeStyle;rounded=0;orthogonalLoop=1;jettySize=auto;html=1;" parent="1" source="YscCx746VWTbniBhREQ4-6" edge="1">
          <mxGeometry relative="1" as="geometry">
            <mxPoint x="210" y="510" as="targetPoint" />
          </mxGeometry>
        </mxCell>
        <mxCell id="8eRDM1Q_fuXBH7UNlYFJ-4" value="" style="edgeStyle=orthogonalEdgeStyle;rounded=0;orthogonalLoop=1;jettySize=auto;html=1;" edge="1" parent="1" source="YscCx746VWTbniBhREQ4-6" target="8eRDM1Q_fuXBH7UNlYFJ-1">
          <mxGeometry relative="1" as="geometry" />
        </mxCell>
        <mxCell id="YscCx746VWTbniBhREQ4-6" value="max &amp;lt; number2&lt;br&gt;min&amp;gt;number2" style="rhombus;whiteSpace=wrap;html=1;" parent="1" vertex="1">
          <mxGeometry x="40" y="470" width="120" height="80" as="geometry" />
        </mxCell>
        <mxCell id="YscCx746VWTbniBhREQ4-10" value="" style="edgeStyle=orthogonalEdgeStyle;rounded=0;orthogonalLoop=1;jettySize=auto;html=1;" parent="1" source="YscCx746VWTbniBhREQ4-8" target="YscCx746VWTbniBhREQ4-6" edge="1">
          <mxGeometry relative="1" as="geometry" />
        </mxCell>
        <mxCell id="YscCx746VWTbniBhREQ4-8" value="max = number1&lt;br&gt;min = number2" style="rounded=0;whiteSpace=wrap;html=1;" parent="1" vertex="1">
          <mxGeometry x="40" y="370" width="120" height="60" as="geometry" />
        </mxCell>
        <mxCell id="YscCx746VWTbniBhREQ4-17" value="true" style="text;html=1;align=center;verticalAlign=middle;resizable=0;points=[];autosize=1;strokeColor=none;fillColor=none;" parent="1" vertex="1">
          <mxGeometry x="155" y="480" width="40" height="30" as="geometry" />
        </mxCell>
        <mxCell id="8eRDM1Q_fuXBH7UNlYFJ-8" value="" style="edgeStyle=orthogonalEdgeStyle;rounded=0;orthogonalLoop=1;jettySize=auto;html=1;" edge="1" parent="1" source="8eRDM1Q_fuXBH7UNlYFJ-1" target="8eRDM1Q_fuXBH7UNlYFJ-6">
          <mxGeometry relative="1" as="geometry" />
        </mxCell>
        <mxCell id="8eRDM1Q_fuXBH7UNlYFJ-10" value="" style="edgeStyle=orthogonalEdgeStyle;rounded=0;orthogonalLoop=1;jettySize=auto;html=1;" edge="1" parent="1" source="8eRDM1Q_fuXBH7UNlYFJ-1" target="8eRDM1Q_fuXBH7UNlYFJ-9">
          <mxGeometry relative="1" as="geometry" />
        </mxCell>
        <mxCell id="8eRDM1Q_fuXBH7UNlYFJ-1" value="max &amp;lt; number3&lt;br&gt;min &amp;gt; number3" style="rhombus;whiteSpace=wrap;html=1;" vertex="1" parent="1">
          <mxGeometry x="40" y="585" width="120" height="80" as="geometry" />
        </mxCell>
        <mxCell id="8eRDM1Q_fuXBH7UNlYFJ-3" style="edgeStyle=orthogonalEdgeStyle;rounded=0;orthogonalLoop=1;jettySize=auto;html=1;entryX=1;entryY=0.5;entryDx=0;entryDy=0;" edge="1" parent="1" source="8eRDM1Q_fuXBH7UNlYFJ-2" target="8eRDM1Q_fuXBH7UNlYFJ-1">
          <mxGeometry relative="1" as="geometry">
            <mxPoint x="270" y="630" as="targetPoint" />
            <Array as="points">
              <mxPoint x="270" y="625" />
            </Array>
          </mxGeometry>
        </mxCell>
        <mxCell id="8eRDM1Q_fuXBH7UNlYFJ-2" value="max = number2&lt;br&gt;min = number2" style="rounded=0;whiteSpace=wrap;html=1;" vertex="1" parent="1">
          <mxGeometry x="210" y="480" width="120" height="60" as="geometry" />
        </mxCell>
        <mxCell id="8eRDM1Q_fuXBH7UNlYFJ-5" value="false" style="text;html=1;align=center;verticalAlign=middle;resizable=0;points=[];autosize=1;strokeColor=none;fillColor=none;" vertex="1" parent="1">
          <mxGeometry x="100" y="550" width="50" height="30" as="geometry" />
        </mxCell>
        <mxCell id="8eRDM1Q_fuXBH7UNlYFJ-15" style="edgeStyle=orthogonalEdgeStyle;rounded=0;orthogonalLoop=1;jettySize=auto;html=1;entryX=0;entryY=0.5;entryDx=0;entryDy=0;" edge="1" parent="1" source="8eRDM1Q_fuXBH7UNlYFJ-6" target="8eRDM1Q_fuXBH7UNlYFJ-9">
          <mxGeometry relative="1" as="geometry">
            <mxPoint x="-70" y="730" as="targetPoint" />
            <Array as="points">
              <mxPoint x="-70" y="740" />
            </Array>
          </mxGeometry>
        </mxCell>
        <mxCell id="8eRDM1Q_fuXBH7UNlYFJ-6" value="max = number3&lt;br&gt;min = number3" style="rounded=0;whiteSpace=wrap;html=1;" vertex="1" parent="1">
          <mxGeometry x="-130" y="595" width="120" height="60" as="geometry" />
        </mxCell>
        <mxCell id="8eRDM1Q_fuXBH7UNlYFJ-13" value="" style="edgeStyle=orthogonalEdgeStyle;rounded=0;orthogonalLoop=1;jettySize=auto;html=1;" edge="1" parent="1" source="8eRDM1Q_fuXBH7UNlYFJ-9" target="8eRDM1Q_fuXBH7UNlYFJ-12">
          <mxGeometry relative="1" as="geometry" />
        </mxCell>
        <mxCell id="8eRDM1Q_fuXBH7UNlYFJ-9" value="max, min" style="shape=parallelogram;perimeter=parallelogramPerimeter;whiteSpace=wrap;html=1;fixedSize=1;" vertex="1" parent="1">
          <mxGeometry x="40" y="710" width="120" height="60" as="geometry" />
        </mxCell>
        <mxCell id="8eRDM1Q_fuXBH7UNlYFJ-11" value="false" style="text;html=1;align=center;verticalAlign=middle;resizable=0;points=[];autosize=1;strokeColor=none;fillColor=none;" vertex="1" parent="1">
          <mxGeometry x="95" y="668" width="50" height="30" as="geometry" />
        </mxCell>
        <mxCell id="8eRDM1Q_fuXBH7UNlYFJ-12" value="End" style="ellipse;whiteSpace=wrap;html=1;" vertex="1" parent="1">
          <mxGeometry x="40" y="810" width="120" height="80" as="geometry" />
        </mxCell>
        <mxCell id="8eRDM1Q_fuXBH7UNlYFJ-14" value="true" style="text;html=1;align=center;verticalAlign=middle;resizable=0;points=[];autosize=1;strokeColor=none;fillColor=none;" vertex="1" parent="1">
          <mxGeometry x="-5" y="595" width="40" height="30" as="geometry" />
        </mxCell>
        <mxCell id="rppmSXs3BApZjX5YPQiv-1" value="bài 4" style="text;html=1;align=center;verticalAlign=middle;resizable=0;points=[];autosize=1;strokeColor=none;fillColor=none;" vertex="1" parent="1">
          <mxGeometry x="-80" y="330" width="50" height="30" as="geometry" />
        </mxCell>
      </root>
    </mxGraphModel>
  </diagram>
  <diagram id="tnJX5iICwo6xF-dERqG3" name="bài6">
    <mxGraphModel dx="880" dy="478" grid="1" gridSize="10" guides="1" tooltips="1" connect="1" arrows="1" fold="1" page="1" pageScale="1" pageWidth="827" pageHeight="1169" math="0" shadow="0">
      <root>
        <mxCell id="0" />
        <mxCell id="1" parent="0" />
        <mxCell id="cfC8jS3-dkAVG7VSdBph-3" value="" style="edgeStyle=orthogonalEdgeStyle;rounded=0;orthogonalLoop=1;jettySize=auto;html=1;" edge="1" parent="1" source="cfC8jS3-dkAVG7VSdBph-1" target="cfC8jS3-dkAVG7VSdBph-2">
          <mxGeometry relative="1" as="geometry" />
        </mxCell>
        <mxCell id="cfC8jS3-dkAVG7VSdBph-1" value="Start" style="ellipse;whiteSpace=wrap;html=1;" vertex="1" parent="1">
          <mxGeometry x="80" y="40" width="120" height="80" as="geometry" />
        </mxCell>
        <mxCell id="cfC8jS3-dkAVG7VSdBph-5" value="" style="edgeStyle=orthogonalEdgeStyle;rounded=0;orthogonalLoop=1;jettySize=auto;html=1;" edge="1" parent="1" source="cfC8jS3-dkAVG7VSdBph-2" target="cfC8jS3-dkAVG7VSdBph-4">
          <mxGeometry relative="1" as="geometry" />
        </mxCell>
        <mxCell id="cfC8jS3-dkAVG7VSdBph-2" value="namsinh,tuoi" style="rounded=0;whiteSpace=wrap;html=1;" vertex="1" parent="1">
          <mxGeometry x="80" y="160" width="120" height="60" as="geometry" />
        </mxCell>
        <mxCell id="cfC8jS3-dkAVG7VSdBph-7" value="" style="edgeStyle=orthogonalEdgeStyle;rounded=0;orthogonalLoop=1;jettySize=auto;html=1;" edge="1" parent="1" source="cfC8jS3-dkAVG7VSdBph-4" target="cfC8jS3-dkAVG7VSdBph-6">
          <mxGeometry relative="1" as="geometry" />
        </mxCell>
        <mxCell id="cfC8jS3-dkAVG7VSdBph-4" value="namsinh" style="shape=parallelogram;perimeter=parallelogramPerimeter;whiteSpace=wrap;html=1;fixedSize=1;" vertex="1" parent="1">
          <mxGeometry x="80" y="260" width="120" height="60" as="geometry" />
        </mxCell>
        <mxCell id="cfC8jS3-dkAVG7VSdBph-9" value="" style="edgeStyle=orthogonalEdgeStyle;rounded=0;orthogonalLoop=1;jettySize=auto;html=1;" edge="1" parent="1" source="cfC8jS3-dkAVG7VSdBph-6" target="cfC8jS3-dkAVG7VSdBph-8">
          <mxGeometry relative="1" as="geometry" />
        </mxCell>
        <mxCell id="cfC8jS3-dkAVG7VSdBph-6" value="tuoi = 2023-namsinh" style="rounded=0;whiteSpace=wrap;html=1;" vertex="1" parent="1">
          <mxGeometry x="80" y="370" width="120" height="60" as="geometry" />
        </mxCell>
        <mxCell id="cfC8jS3-dkAVG7VSdBph-11" value="" style="edgeStyle=orthogonalEdgeStyle;rounded=0;orthogonalLoop=1;jettySize=auto;html=1;" edge="1" parent="1" source="cfC8jS3-dkAVG7VSdBph-8" target="cfC8jS3-dkAVG7VSdBph-10">
          <mxGeometry relative="1" as="geometry" />
        </mxCell>
        <mxCell id="cfC8jS3-dkAVG7VSdBph-13" value="" style="edgeStyle=orthogonalEdgeStyle;rounded=0;orthogonalLoop=1;jettySize=auto;html=1;" edge="1" parent="1" source="cfC8jS3-dkAVG7VSdBph-8" target="cfC8jS3-dkAVG7VSdBph-12">
          <mxGeometry relative="1" as="geometry" />
        </mxCell>
        <mxCell id="cfC8jS3-dkAVG7VSdBph-8" value="namsinh % 2 == 0" style="rhombus;whiteSpace=wrap;html=1;" vertex="1" parent="1">
          <mxGeometry x="80" y="480" width="120" height="80" as="geometry" />
        </mxCell>
        <mxCell id="cfC8jS3-dkAVG7VSdBph-18" style="edgeStyle=orthogonalEdgeStyle;rounded=0;orthogonalLoop=1;jettySize=auto;html=1;entryX=0.717;entryY=0.05;entryDx=0;entryDy=0;entryPerimeter=0;" edge="1" parent="1" source="cfC8jS3-dkAVG7VSdBph-10" target="cfC8jS3-dkAVG7VSdBph-16">
          <mxGeometry relative="1" as="geometry">
            <mxPoint x="440" y="520" as="targetPoint" />
            <Array as="points">
              <mxPoint x="440" y="520" />
            </Array>
          </mxGeometry>
        </mxCell>
        <mxCell id="cfC8jS3-dkAVG7VSdBph-10" value="chan" style="shape=parallelogram;perimeter=parallelogramPerimeter;whiteSpace=wrap;html=1;fixedSize=1;" vertex="1" parent="1">
          <mxGeometry x="280" y="490" width="120" height="60" as="geometry" />
        </mxCell>
        <mxCell id="cfC8jS3-dkAVG7VSdBph-19" style="edgeStyle=orthogonalEdgeStyle;rounded=0;orthogonalLoop=1;jettySize=auto;html=1;entryX=0;entryY=0.5;entryDx=0;entryDy=0;" edge="1" parent="1" source="cfC8jS3-dkAVG7VSdBph-12" target="cfC8jS3-dkAVG7VSdBph-16">
          <mxGeometry relative="1" as="geometry" />
        </mxCell>
        <mxCell id="cfC8jS3-dkAVG7VSdBph-12" value="lẻ" style="shape=parallelogram;perimeter=parallelogramPerimeter;whiteSpace=wrap;html=1;fixedSize=1;" vertex="1" parent="1">
          <mxGeometry x="80" y="620" width="120" height="60" as="geometry" />
        </mxCell>
        <mxCell id="cfC8jS3-dkAVG7VSdBph-14" value="true" style="text;html=1;align=center;verticalAlign=middle;resizable=0;points=[];autosize=1;strokeColor=none;fillColor=none;" vertex="1" parent="1">
          <mxGeometry x="210" y="488" width="40" height="30" as="geometry" />
        </mxCell>
        <mxCell id="cfC8jS3-dkAVG7VSdBph-15" value="false" style="text;html=1;align=center;verticalAlign=middle;resizable=0;points=[];autosize=1;strokeColor=none;fillColor=none;" vertex="1" parent="1">
          <mxGeometry x="135" y="568" width="50" height="30" as="geometry" />
        </mxCell>
        <mxCell id="cfC8jS3-dkAVG7VSdBph-16" value="End" style="ellipse;whiteSpace=wrap;html=1;" vertex="1" parent="1">
          <mxGeometry x="354" y="610" width="120" height="80" as="geometry" />
        </mxCell>
        <mxCell id="oguZSmoPEuHILDFGuTka-1" value="bài 6" style="text;html=1;align=center;verticalAlign=middle;resizable=0;points=[];autosize=1;strokeColor=none;fillColor=none;" vertex="1" parent="1">
          <mxGeometry x="235" y="198" width="50" height="30" as="geometry" />
        </mxCell>
      </root>
    </mxGraphModel>
  </diagram>
</mxfile>
